# xmcd
#
# Track frame offsets: 
#        150
#        16333
#        38514
#        56241
#        74548
#        97875
#        118331
#        136170
#        156000
#        166555
#        185963
#
# Disc length: 2781 seconds
#
# Revision: 1
# Processed by: cddbd v1.5.1PL0 Copyright (c) Steve Scherf et al.
# Submitted via: ExactAudioCopy v0.95a5
#
DISCID=900adb0b
DTITLE=??? - LOVE PUNCH
DYEAR=1900
DGENRE=
TTITLE0=pretty voice
TTITLE1=?????
TTITLE2=?????
TTITLE3=GIRLY
TTITLE4=?????????
TTITLE5=?????
TTITLE6=????????
TTITLE7=???????
TTITLE8=???
TTITLE9=????
TTITLE10=Always Together
EXTD=
EXTT0=
EXTT1=
EXTT2=
EXTT3=
EXTT4=
EXTT5=
EXTT6=
EXTT7=
EXTT8=
EXTT9=
EXTT10=
PLAYORDER=
